<svg width="417" height="510" viewBox="0 0 417 510" fill="none" xmlns="http://www.w3.org/2000/svg">
<path d="M-989.749 1028.53C-1024.85 979.462 -1018.74 908.494 -983.465 859.498C-948.491 810.442 -889.477 782.353 -829.908 773.742C-770.34 765.132 -709.501 773.953 -650.452 787.11C-593.812 799.793 -535.472 816.56 -478.803 805.193C-391.213 787.713 -327.71 704.895 -310.221 617.415C-293.032 529.877 -314.326 439.156 -345.164 355.622C-367.001 296.348 -393.268 227.77 -360.782 173.852C-331.106 124.693 -263.487 111.728 -206.735 122.246C-112.571 139.799 -29.8241 210.719 1.2214 301.168C15.3443 342.368 19.5439 386.306 26.1475 429.155C33.0524 472.062 42.9107 515.862 67.4293 551.918C91.9479 587.974 133.171 615.438 176.626 612.411" stroke="#8A8A8A" stroke-width="0.75" stroke-miterlimit="10"/>
<path d="M-978.763 1036.31C-1014.36 984.96 -1008.07 911.526 -972.082 860.483C-936.093 809.44 -875.461 779.481 -813.305 770.442C-755 761.895 -695.667 770.421 -638.065 782.981C-582.572 795.127 -525.862 810.636 -470.215 799.694C-427.203 790.956 -389.849 766.424 -361.437 733.263C-333.085 700.403 -313.434 659.273 -304.863 617.218C-288.785 538.521 -304.326 456.741 -329.659 380.223C-331.851 373.857 -333.8 367.85 -335.991 361.484C-356.558 303.71 -381.254 236.69 -349.606 183.857C-320.711 135.483 -256.221 122.527 -201.525 130.767C-132.553 141.186 -67.8691 179.818 -26.2919 237.344C-12.4939 256.299 -1.27717 277.246 6.57281 299.407C14.9071 322.288 19.9337 346.081 24.2397 370.358C27.5001 388.806 30.04 407.738 33.3005 426.186C38.3448 454.669 44.8362 483.748 55.9526 509.987C61.5403 522.956 68.1499 535.501 76.5019 547.139C101.499 582.351 142.716 608.252 185.929 604.865" stroke="#909090" stroke-width="0.75" stroke-miterlimit="10"/>
<path d="M-967.777 1044.09C-1003.86 990.458 -997.765 914.8 -961.001 861.409C-924.238 808.019 -861.385 776.31 -797.304 767.023C-740.322 758.842 -682.436 766.771 -626.222 778.434C-572.117 789.682 -516.553 804.654 -462.471 793.716C-420.481 785.403 -384.149 761.295 -355.974 729.338C-328.159 697.621 -308.744 657.695 -299.748 616.66C-283.18 540.247 -297.267 460.626 -321.03 385.666C-322.979 379.66 -324.869 373.353 -327.12 367.288C-346.358 310.712 -369.541 245.551 -339.033 193.744C-311.278 146.395 -249.559 133.208 -196.617 139.229C-129.34 147.128 -64.6736 181.07 -21.7793 236.668C-7.56193 255.08 3.77303 275.426 12.2846 297.404C20.9792 320.044 26.366 343.595 30.7901 367.271C34.3518 385.778 37.3111 404.167 40.8728 422.674C46.2775 450.915 53.1883 479.453 64.9662 505.509C70.613 518.177 77.5828 530.48 86.053 541.516C111.588 575.585 153.041 600.282 195.77 596.176" stroke="#959595" stroke-width="0.75" stroke-miterlimit="10"/>
<path d="M-957.091 1051.81C-993.967 995.837 -987.7 917.713 -949.921 862.335C-912.141 806.958 -847.67 773.379 -781.06 763.964C-725.644 755.788 -668.963 763.481 -614.196 774.547C-561.237 785.258 -507.061 799.332 -454.243 788.459C-413.215 780.269 -377.722 757.246 -349.967 725.831C-322.631 694.958 -303.452 656.235 -294.332 616.162C-277.574 541.972 -290.15 464.211 -312.099 391.169C-313.747 385.222 -315.696 379.216 -317.645 373.209C-335.554 317.832 -357.226 254.529 -327.858 203.748C-301.242 157.426 -241.992 144.066 -191.106 147.809C-125.766 152.829 -60.5152 182.199 -17.0243 236.352C-2.6888 254.162 9.30768 274.326 17.8783 296.003C26.9332 318.401 32.6804 341.711 37.4648 365.145C41.0856 383.351 44.3461 401.799 48.2681 420.064C54.033 448.064 61.3041 476.36 73.5014 501.874C79.5085 514.3 86.5375 526.303 95.0667 537.038C121.08 570.263 162.769 593.757 205.073 588.63" stroke="#9B9B9B" stroke-width="0.75" stroke-miterlimit="10"/>
<path d="M-946.105 1059.6C-983.47 1001.33 -977.333 920.686 -938.538 863.321C-900.044 805.896 -833.352 770.567 -764.758 760.604C-710.664 752.793 -655.431 759.889 -602.052 770.058C-550.481 779.872 -497.693 793.049 -446.198 782.54C-406.435 774.415 -371.42 752.235 -344.202 721.964C-317.403 692.235 -298.159 654.775 -288.915 615.663C-271.608 543.456 -283.032 467.795 -303.168 396.672C-304.816 390.725 -306.523 385.078 -308.23 379.432C-324.568 325.612 -344.969 263.809 -316.8 214.355C-291.325 169.058 -234.786 155.166 -186.014 156.932C-122.37 159.431 -57.1365 184.112 -12.3285 236.336C2.42643 253.605 14.482 273.467 23.4719 294.602C32.645 316.398 38.9947 339.827 44.1394 363.018C48.1205 380.983 51.7413 399.189 55.6633 417.455C61.7885 445.213 69.7802 473.025 82.3969 497.997C88.7643 510.182 95.8523 521.883 104.742 532.376C131.292 564.458 172.917 586.689 215.037 580.901" stroke="#A0A0A0" stroke-width="0.75" stroke-miterlimit="10"/>
<path d="M-935.118 1067.38C-972.974 1006.83 -966.725 924.018 -927.457 864.247C-887.888 804.534 -819.577 767.335 -748.455 757.244C-695.986 749.739 -641.898 756.298 -589.666 765.929C-539.24 775.206 -487.84 787.485 -437.61 777.041C-398.809 769.039 -364.875 747.584 -338.194 718.457C-311.874 689.572 -292.867 653.315 -283.558 615.465C-266.062 545.483 -275.973 471.681 -294.296 402.475C-295.702 396.888 -297.409 391.242 -299.116 385.595C-314.125 332.974 -332.713 273.089 -305.985 224.601C-281.348 180.389 -227.881 166.207 -180.864 165.754C-118.855 165.433 -53.6397 185.424 -7.87478 235.962C7.29948 252.687 19.4731 271.948 28.8234 292.842C38.3568 314.396 44.8246 337.223 50.2706 360.473C54.5529 378.497 58.2327 396.403 62.5742 414.126C69.3609 441.702 77.4708 468.912 90.4477 493.642C96.8742 505.526 104.323 516.986 113.271 527.178C140.359 558.115 182.22 579.144 223.555 572.576" stroke="#A6A6A6" stroke-width="0.75" stroke-miterlimit="10"/>
<path d="M-924.132 1075.16C-962.478 1012.33 -956.359 926.991 -916.075 865.232C-875.792 803.473 -805.26 764.523 -732.153 753.885C-680.948 746.444 -628.668 752.648 -577.522 761.441C-528.543 770.121 -478.171 781.261 -429.565 771.123C-391.727 763.244 -358.573 742.574 -332.371 714.29C-306.529 686.248 -287.757 651.194 -278.082 614.666C-260.398 546.907 -268.856 475.265 -285.607 407.618C-287.013 402.031 -288.419 396.443 -289.884 391.157C-303.564 339.734 -320.64 281.708 -295.052 234.246C-271.496 190.759 -220.498 176.404 -175.595 173.974C-115.223 170.832 -49.7827 186.493 -3.0018 235.043C12.2906 251.168 25.1258 270.246 34.5351 290.839C44.4288 312.151 51.2569 334.736 57.0632 357.746C61.4046 375.469 65.3857 393.433 70.0874 410.915C77.2345 438.249 85.7047 465.218 99.4613 489.163C106.248 500.806 114.057 512.024 123.064 521.915C150.932 552.068 192.486 571.474 233.638 564.246" stroke="#ABABAB" stroke-width="0.75" stroke-miterlimit="10"/>
<path d="M-913.146 1082.94C-951.982 1017.83 -946.052 930.265 -904.693 866.217C-863.334 802.17 -791.243 761.652 -715.549 750.584C-665.667 743.508 -614.834 749.115 -565.135 757.312C-517.244 765.154 -468.319 775.697 -420.977 765.623C-384.101 757.868 -351.786 738.283 -326.062 710.842C-300.758 683.944 -282.223 650.093 -272.424 614.527C-254.249 549.052 -261.195 479.268 -276.375 413.179C-277.539 407.952 -278.945 402.365 -280.108 397.138C-292.577 347.515 -308.443 291.288 -283.694 244.912C-261.278 202.45 -212.689 187.622 -170.202 183.156C-111.165 177.253 -46.044 188.165 1.69385 235.028C17.4056 250.61 30.359 269.087 40.4298 289.497C50.6838 310.568 57.8723 332.911 64.0388 355.679C68.7405 373.16 73.082 390.883 77.7837 408.365C85.291 435.457 94.4818 461.942 108.298 485.587C115.084 497.23 123.312 507.905 132.438 517.195C160.843 546.204 202.633 564.407 243.242 556.76" stroke="#B1B1B1" stroke-width="0.75" stroke-miterlimit="10"/>
<path d="M-902.159 1090.72C-941.787 1023.27 -935.685 933.238 -893.311 867.203C-851.237 801.109 -776.866 758.539 -699.305 747.525C-650.989 740.454 -601.361 745.825 -553.109 753.425C-506.364 760.729 -459.069 770.016 -413.05 760.307C-377.137 752.675 -345.601 733.873 -320.415 707.577C-295.288 681.582 -277.291 648.875 -267.125 614.631C-248.761 551.379 -254.195 483.455 -267.562 419.284C-268.726 414.057 -269.889 408.829 -271.053 403.602C-282.134 354.876 -296.127 300.267 -272.819 254.857C-251.543 213.422 -205.666 198.061 -164.992 191.677C-107.532 182.652 -42.1866 189.235 6.20682 234.352C22.338 249.392 35.3504 267.567 45.7816 287.736C56.455 308.264 63.9446 330.667 70.2293 352.833C75.2913 370.073 79.6327 387.796 84.6948 405.035C92.6215 431.585 102.114 458.13 116.65 481.291C123.797 492.692 132.084 503.067 141.57 512.115C170.454 540.281 212.238 556.92 252.663 548.612" stroke="#B7B7B7" stroke-width="0.75" stroke-miterlimit="10"/>
<path d="M-891.172 1098.5C-931.291 1028.76 -925.077 936.57 -882.23 868.128C-839.14 800.047 -763.151 755.608 -683.003 744.165C-636.009 737.459 -587.829 742.234 -540.965 748.936C-495.667 755.644 -449.459 764.092 -404.763 754.748C-370.173 747.481 -339.358 729.163 -314.709 704.011C-290.12 679.159 -272.358 647.656 -262.069 614.373C-243.457 553.045 -247.438 487.281 -258.992 425.028C-259.854 419.86 -261.077 414.934 -261.939 409.766C-271.75 362.539 -284.172 309.488 -262.063 265.404C-241.927 224.995 -198.46 209.161 -159.96 201.1C-103.835 189.314 -38.8671 191.448 10.7845 234.939C27.0337 249.376 40.7668 267.069 51.257 286.937C61.9895 307.164 69.8395 329.325 76.7857 351.308C81.8477 368.548 86.9098 385.788 91.9718 403.027C100.259 429.336 110.17 455.338 125.126 477.957C132.332 489.057 140.979 499.19 150.525 507.937C179.946 534.959 221.966 550.395 261.907 541.367" stroke="#BCBCBC" stroke-width="0.75" stroke-miterlimit="10"/>
<path d="M-880.186 1106.28C-920.795 1034.26 -914.711 939.543 -870.848 869.114C-826.985 798.685 -748.774 752.496 -666.701 740.806C-620.971 734.164 -574.297 738.643 -528.88 744.749C-484.669 750.618 -439.908 758.469 -396.777 749.131C-363.15 741.987 -333.115 724.453 -308.945 700.144C-284.834 676.136 -267.007 645.895 -256.653 613.875C-237.551 554.83 -240.321 490.865 -250.061 430.531C-250.982 425.663 -251.845 420.495 -252.465 415.687C-260.646 369.718 -271.856 318.467 -250.888 275.409C-231.591 236.084 -190.775 219.418 -154.751 209.621C-100.202 194.713 -35.3114 192.459 15.297 234.263C31.9657 248.158 45.7578 265.549 56.6675 284.875C67.7602 304.86 75.9705 326.78 82.9758 348.462C88.3981 365.46 93.4601 382.7 99.2428 399.456C107.89 425.523 118.463 451.343 133.838 473.419C141.405 484.277 150.111 494.11 160.017 502.616C189.975 528.493 231.93 542.667 271.688 532.978" stroke="#C2C2C2" stroke-width="0.75" stroke-miterlimit="10"/>
<path d="M-869.2 1114.06C-910.298 1039.76 -904.403 942.817 -859.465 870.099C-814.586 797.683 -734.757 749.624 -650.097 737.505C-605.992 731.17 -560.463 735.111 -516.133 740.378C-473.369 745.651 -429.937 752.305 -388.13 743.331C-355.466 736.31 -326.57 719.803 -302.577 696.396C-278.944 673.231 -261.354 644.194 -250.935 613.436C-231.644 556.615 -232.961 494.81 -241.13 436.033C-241.75 431.225 -242.37 426.417 -243.292 421.55C-250.143 376.779 -259.842 327.387 -240.013 285.355C-221.856 247.056 -183.693 229.556 -149.541 218.142C-96.2682 200.172 -31.5133 193.83 20.1111 233.646C37.2582 246.698 51.1094 263.789 62.3203 283.173C73.7734 302.917 82.403 324.294 89.7095 346.036C95.4922 362.792 100.613 379.731 106.697 396.546C116.006 422.43 126.697 447.648 142.793 469.242C150.72 479.858 159.485 489.39 169.509 497.294C200.247 522.387 242.196 534.998 281.47 524.589" stroke="#C7C7C7" stroke-width="0.75" stroke-miterlimit="10"/>
<path d="M-858.213 1121.84C-899.743 1044.95 -894.037 945.789 -848.444 871.326C-802.791 796.562 -720.8 747.053 -633.854 734.446C-591.013 728.174 -546.99 731.82 -504.108 736.491C-462.43 740.925 -420.445 746.982 -379.902 738.073C-348.502 731.117 -320.085 715.452 -296.629 693.19C-273.534 671.169 -256.18 643.335 -245.336 613.598C-225.554 559.06 -225.359 499.114 -232.016 442.196C-232.636 437.388 -233.014 432.94 -233.634 428.132C-239.216 384.86 -247.344 337.026 -228.655 296.02C-211.579 258.446 -175.826 240.473 -143.847 227.383C-92.0924 205.991 -27.4733 195.56 25.108 233.69C42.6745 246.199 56.8859 263.048 68.5162 281.89C80.3886 301.092 89.3195 322.528 96.9864 344.028C102.828 360.483 108.552 377.54 114.695 394.055C124.364 419.697 135.415 444.674 151.93 465.724C159.916 476.04 169.101 485.029 179.426 492.993C210.702 516.941 252.887 528.349 291.677 517.22" stroke="#CDCDCD" stroke-width="0.75" stroke-miterlimit="10"/>
<path d="M-847.227 1129.62C-889.548 1050.39 -883.429 949.122 -837.061 872.311C-790.694 795.501 -706.725 743.882 -617.61 731.387C-576.394 725.422 -533.818 728.47 -492.022 732.303C-451.792 736.141 -410.835 741.059 -371.916 732.455C-341.479 725.623 -313.841 710.742 -291.166 689.264C-268.549 668.087 -251.431 641.456 -240.522 612.981C-220.551 560.667 -218.844 502.58 -223.688 447.581C-224.066 443.133 -224.444 438.685 -225.064 433.877C-229.317 391.803 -235.932 345.828 -218.082 305.907C-202.146 269.359 -168.986 250.252 -139.24 235.785C-89.0032 210.971 -24.2777 196.812 29.0183 232.896C46.7029 244.803 61.3337 261.11 73.3243 279.71C85.557 298.67 94.8482 319.864 102.574 341.064C108.717 357.578 114.5 374.335 121.003 390.608C131.033 416.008 142.805 440.501 159.68 461.31C168.026 471.384 177.27 480.073 187.654 487.735C219.467 510.54 261.588 520.685 300.194 508.896" stroke="#D2D2D2" stroke-width="0.75" stroke-miterlimit="10"/>
<path d="M-836.241 1137.4C-879.052 1055.89 -873.063 952.094 -825.679 873.297C-778.237 794.198 -692.407 741.069 -601.007 728.087C-561.113 722.486 -519.985 724.938 -479.636 728.175C-440.551 731.475 -401.284 735.437 -363.328 726.956C-333.853 720.247 -307.297 706.091 -284.857 685.816C-262.778 665.783 -245.838 640.055 -234.562 612.902C-214.402 562.812 -211.183 506.584 -214.154 453.202C-214.532 448.754 -214.609 444.365 -214.987 439.917C-217.911 399.041 -223.014 354.925 -206.363 316.331C-191.266 280.868 -160.758 260.928 -133.185 244.785C-84.4078 216.247 -19.8773 198.301 34.6769 232.757C52.7808 244.122 67.772 260.187 79.8216 278.487C92.1134 297.146 101.765 318.098 110.152 339.115C116.656 355.388 122.799 371.903 129.302 388.176C139.692 413.335 151.824 437.586 169.178 457.552C177.583 467.325 187.187 475.772 197.932 483.192C230.223 505.154 272.58 514.096 310.401 501.527" stroke="#D8D8D8" stroke-width="0.75" stroke-miterlimit="10"/>
<path d="M-825.254 1145.18C-868.556 1061.39 -862.756 955.368 -814.598 874.223C-766.441 793.078 -678.632 737.838 -585.005 724.668C-546.376 719.131 -506.754 721.288 -467.793 723.627C-429.796 726.089 -391.916 729.153 -355.584 720.979C-327.072 714.393 -301.355 701.322 -279.394 681.891C-257.492 662.76 -240.847 638.535 -229.748 612.285C-209.039 564.177 -204.727 510.351 -205.826 458.586C-205.903 454.197 -206.038 450.109 -206.174 446.021C-207.828 406.644 -211.059 364.146 -195.849 326.518C-181.892 292.081 -153.977 271.007 -128.637 253.488C-81.6199 221.169 -16.9831 199.494 38.4688 232.564C56.9922 243.387 72.0424 259.151 84.5114 276.908C97.1635 295.326 107.175 316.036 115.982 336.511C122.846 352.542 128.989 369.057 135.911 384.787C146.721 409.404 159.213 433.414 177.229 453.197C185.994 462.728 195.959 470.933 206.461 477.994C239.29 498.811 281.582 506.491 319.219 493.261" stroke="#DEDEDE" stroke-width="0.75" stroke-miterlimit="10"/>
<path d="M-814.268 1152.96C-858.06 1066.89 -852.389 958.34 -803.216 875.208C-754.043 792.075 -664.314 735.026 -568.402 721.367C-531.396 716.137 -492.861 717.455 -455.407 719.498C-418.856 721.364 -382.064 723.59 -346.996 715.479C-319.807 709.258 -294.81 696.671 -273.085 678.443C-251.662 660.156 -235.253 637.134 -223.788 612.205C-202.89 566.322 -197.066 514.354 -196.351 464.508C-196.186 460.479 -196.322 456.391 -196.458 452.303C-196.481 414.183 -198.501 373.485 -184.432 336.883C-171.614 303.472 -146.593 281.204 -122.884 262.428C-77.627 226.327 -12.6416 201.284 43.8262 232.367C62.4677 242.588 77.9373 257.81 90.7075 275.625C103.779 293.501 114.092 314.271 122.958 334.444C129.881 350.175 136.384 366.448 143.608 382.237C154.777 406.612 167.931 430.439 186.124 449.32C194.949 458.551 205.274 466.514 216.195 473.032C249.503 493.006 292.09 499.181 329.243 485.232" stroke="#E3E3E3" stroke-width="0.75" stroke-miterlimit="10"/>
<path d="M-803.281 1160.74C-847.564 1072.38 -841.781 961.673 -791.834 876.193C-741.887 790.713 -650.298 732.155 -552.099 718.008C-516.358 712.841 -479.329 713.864 -443.021 715.37C-407.616 716.698 -372.211 718.026 -338.708 709.921C-312.483 703.824 -288.265 692.02 -267.32 674.576C-246.434 657.433 -230.262 635.615 -218.673 611.648C-197.586 567.988 -189.949 517.939 -188.023 469.892C-187.858 465.863 -187.692 461.834 -187.586 458.106C-186.28 421.185 -186.788 382.345 -173.859 346.769C-162.122 314.083 -139.753 290.982 -117.975 270.89C-74.7799 230.947 -9.38699 202.235 48.0378 231.631C67.0986 241.31 82.9285 256.29 96.1181 273.564C109.55 291.197 120.282 311.424 129.45 331.657C136.673 347.447 143.537 363.478 151.121 379.026C162.952 403.218 176.225 426.444 195.079 445.142C204.264 454.131 214.647 461.794 225.628 468.011C259.775 486.9 301.996 491.754 338.965 477.144" stroke="#E9E9E9" stroke-width="0.75" stroke-miterlimit="10"/>
<path d="M-792.295 1168.53C-837.369 1077.82 -831.415 964.646 -780.753 877.119C-729.79 789.652 -636.222 728.983 -535.856 714.949C-501.438 710.148 -465.856 710.573 -430.936 711.182C-396.919 711.613 -362.902 712.044 -330.421 704.363C-305.159 698.388 -281.721 687.37 -261.313 671.07C-240.906 654.77 -224.969 634.155 -213.014 611.509C-191.437 570.133 -182.589 521.883 -178.85 475.755C-178.442 472.086 -178.277 468.057 -177.869 464.388C-175.294 428.966 -174.231 391.684 -162.5 357.435C-151.602 325.834 -132.429 301.481 -112.583 280.072C-71.3896 235.987 -5.40598 204.267 53.0347 231.675C72.515 240.812 88.463 255.19 102.013 272.222C115.805 289.613 126.597 309.54 136.425 329.59C144.009 345.138 150.932 360.869 158.817 376.476C171.009 400.427 184.641 423.411 203.915 441.566C213.159 450.254 223.903 457.675 235.244 463.651C269.928 481.396 312.385 485.046 348.871 469.716" stroke="#EEEEEE" stroke-width="0.75" stroke-miterlimit="10"/>
<path d="M-781.309 1176.31C-826.873 1083.32 -821.108 967.919 -769.371 878.104C-717.634 788.29 -622.206 726.111 -519.554 711.589C-486.701 706.793 -452.324 706.982 -418.851 706.994C-385.98 706.887 -353.351 706.421 -322.436 698.745C-298.136 692.894 -275.838 682.901 -255.607 667.503C-235.737 652.348 -219.978 632.635 -207.958 611.252C-186.192 572.1 -175.891 526.01 -170.279 481.499C-169.872 477.83 -169.464 474.161 -169.057 470.492C-165.152 436.268 -162.577 400.846 -151.986 367.622C-142.228 337.047 -125.95 311.501 -107.733 288.834C-68.9029 240.849 -2.21049 205.519 57.1871 231.241C76.7855 239.775 93.0938 253.912 107.004 270.702C120.855 287.793 132.308 307.538 142.196 327.287C149.839 342.534 157.364 358.383 165.309 373.689C177.861 397.398 192.214 419.898 211.907 437.512C221.511 445.958 232.314 453.078 243.714 458.753C278.877 475.655 321.629 477.801 357.631 461.751" stroke="#F4F4F4" stroke-width="0.75" stroke-miterlimit="10"/>
<path d="M-770.322 1184.09C-816.376 1088.82 -810.741 970.893 -757.989 879.09C-705.236 787.288 -607.888 723.299 -502.95 708.289C-471.42 703.858 -438.791 703.391 -406.405 702.565C-374.922 701.561 -343.381 700.256 -313.788 692.945C-290.752 687.159 -268.933 678.009 -249.181 663.455C-229.789 649.142 -214.325 630.934 -201.88 610.571C-179.624 573.702 -168.111 529.412 -160.628 486.519C-159.919 482.909 -159.57 479.541 -158.862 475.931C-153.687 443.206 -149.541 409.342 -140.09 377.144C-131.472 347.594 -118.389 320.796 -101.502 296.931C-65.335 244.986 2.30836 206.406 62.7219 230.141C82.7397 238.133 99.4674 251.727 113.437 268.216C127.648 285.066 139.461 304.568 149.71 324.076C157.713 339.081 165.297 354.629 173.602 369.694C186.514 393.161 201.228 415.42 221.34 432.491C231.245 440.997 242.167 447.515 253.927 452.948C289.627 468.706 332.315 469.59 368.133 452.879" stroke="#F9F9F9" stroke-width="0.75" stroke-miterlimit="10"/>
<path d="M-759.336 1191.87C-805.88 1094.31 -800.074 973.924 -746.607 880.075C-693.139 786.226 -593.812 720.127 -486.647 704.929C-403.971 693.357 -312.046 707.971 -243.475 659.889C-190.155 622.558 -166.086 555.741 -152.057 492.263C-137.97 428.484 -129.854 361.658 -96.6524 305.694C-63.1497 249.789 5.80496 207.718 67.1163 230.066C107.991 244.965 135.108 283.719 156.083 321.891C177.057 360.062 195.876 401.248 229.934 428.555C270.755 461.251 330.442 467.972 377.495 445.032" stroke="white" stroke-width="0.75" stroke-miterlimit="10"/>
</svg>
