<svg width="463" height="547" viewBox="0 0 463 547" fill="none" xmlns="http://www.w3.org/2000/svg">
<path d="M1041.5 564.2C1000.11 608.1 929.296 615.775 874.421 590.602C819.546 565.735 780.613 513.239 760.686 456.446C740.76 399.652 737.694 338.253 739.227 277.776C740.76 219.754 745.971 159.276 723.899 105.86C689.87 23.2784 596.368 -23.0775 507.158 -23.3845C417.948 -23.3845 333.03 14.9896 257.002 61.3456C203.047 94.1939 140.815 133.182 81.6478 111.692C27.6926 92.0449 1.94117 28.1904 1.32805 -29.5243C0.408356 -125.306 54.057 -220.167 136.829 -268.058C174.537 -289.855 216.842 -302.441 257.615 -317.177C298.388 -332.22 339.468 -350.332 370.124 -381.338C400.781 -412.345 419.787 -458.087 408.445 -500.145" stroke="#8A8A8A" stroke-width="0.75" stroke-miterlimit="10"/>
<path d="M1047.02 551.921C1003.48 596.742 930.216 604.723 873.195 579.243C816.174 553.763 775.095 500.039 754.248 440.789C734.628 385.223 731.563 325.36 732.789 266.417C734.015 209.623 738.307 150.988 716.848 98.4918C699.987 57.9687 668.717 26.0414 630.703 4.55189C592.996 -16.9376 548.851 -28.2964 505.932 -28.6034C425.612 -29.2174 348.358 1.78895 278.155 41.3911C272.33 44.768 266.812 47.8379 260.988 51.2148C208.259 82.5281 147.252 119.674 89.3119 98.7988C36.2764 79.7652 11.1381 18.9806 8.68559 -36.2782C5.61996 -105.966 31.0648 -176.881 79.5018 -228.763C95.4431 -245.954 113.837 -260.997 134.07 -272.97C154.916 -285.557 177.296 -295.073 200.288 -303.976C217.762 -310.73 235.849 -316.87 253.323 -323.624C280.301 -334.061 307.585 -346.034 331.19 -361.998C342.84 -369.98 353.876 -378.882 363.686 -389.32C393.423 -420.634 410.897 -466.069 399.248 -507.82" stroke="#909090" stroke-width="0.75" stroke-miterlimit="10"/>
<path d="M1052.53 539.641C1006.86 585.383 931.442 593.979 871.969 568.191C812.495 542.404 769.27 486.838 747.811 425.746C728.804 371.409 725.432 313.08 726.045 255.672C726.658 200.413 730.643 143.006 709.49 92.0449C693.242 52.4428 662.586 21.4365 625.798 -0.0530605C589.317 -21.2356 546.398 -32.5943 504.399 -33.5153C426.225 -35.0503 350.811 -5.8859 281.834 31.8743C276.316 34.9442 270.491 38.0141 264.973 41.391C213.164 71.1693 153.69 106.474 96.976 86.519C45.1667 68.4064 20.335 10.3847 16.0431 -42.7251C10.8315 -110.264 31.6779 -180.258 77.969 -233.061C93.2972 -250.559 111.078 -265.602 131.004 -278.189C151.544 -291.083 173.617 -300.906 195.996 -309.809C213.47 -316.87 230.944 -323.317 248.418 -330.378C275.089 -341.122 301.76 -353.402 325.059 -369.98C336.402 -377.962 347.132 -387.171 356.329 -397.609C384.839 -429.229 401.087 -474.664 388.825 -515.802" stroke="#959595" stroke-width="0.75" stroke-miterlimit="10"/>
<path d="M1058.05 527.668C1010.23 574.638 932.362 583.541 870.743 557.14C809.124 530.738 763.752 473.944 741.68 410.397C722.979 357.594 719.607 300.493 719.914 244.621C720.22 190.59 723.592 134.717 702.746 84.9841C686.805 46.303 657.375 15.9107 621.2 -5.27183C585.639 -26.1474 543.946 -37.5061 502.866 -38.7341C426.839 -40.883 352.957 -13.5607 285.513 22.0505C279.995 24.8135 274.477 27.8834 268.958 30.9534C218.069 59.1967 160.128 92.659 104.64 73.6254C54.0574 56.4338 29.5323 0.868033 23.401 -49.7858C15.7369 -114.868 31.9847 -184.556 76.7429 -237.666C91.458 -255.164 108.932 -270.821 128.552 -283.408C148.785 -296.608 170.552 -306.739 192.624 -315.949C209.792 -323.01 227.266 -329.764 244.433 -337.131C270.798 -348.183 297.162 -360.77 319.848 -377.655C330.884 -385.943 341.307 -395.153 350.198 -405.591C377.789 -437.518 392.81 -482.953 379.628 -523.476" stroke="#9B9B9B" stroke-width="0.75" stroke-miterlimit="10"/>
<path d="M1063.57 515.389C1013.6 563.279 933.282 572.796 869.516 545.781C805.751 519.072 758.234 460.437 735.242 395.047C717.154 343.472 713.476 287.907 713.169 233.569C712.862 181.073 715.622 126.735 695.388 78.2303C679.754 40.7772 651.243 10.6919 616.295 -10.1837C581.96 -30.7522 541.493 -42.4179 501.333 -43.9529C427.145 -47.0228 355.103 -21.2354 289.191 12.2268C283.673 14.9898 278.462 17.7527 273.25 20.5156C223.587 46.917 166.872 78.8443 112.917 60.7318C63.5604 44.4611 39.0352 -8.34168 31.3711 -56.5396C21.561 -119.473 33.2105 -188.24 75.8228 -242.27C89.9247 -260.076 107.092 -275.733 126.099 -288.626C145.719 -301.827 167.485 -312.572 189.251 -322.089C206.112 -329.456 223.28 -336.517 240.448 -343.885C266.506 -355.244 292.257 -368.445 314.329 -385.636C325.059 -394.232 335.176 -403.442 343.76 -414.187C370.124 -446.421 383.919 -491.549 370.124 -531.765" stroke="#A0A0A0" stroke-width="0.75" stroke-miterlimit="10"/>
<path d="M1069.09 503.109C1016.97 551.921 934.508 561.744 868.29 534.729C802.072 507.407 752.409 447.543 728.804 379.697C711.33 329.658 707.344 275.32 706.731 222.21C706.118 170.942 708.264 118.139 688.337 70.8624C673.009 34.3302 645.418 5.16588 611.696 -15.4027C578.281 -35.6642 539.041 -47.3299 500.107 -49.1719C428.065 -52.8558 357.555 -28.9103 293.177 2.40296C287.965 4.8589 282.754 7.62186 277.542 10.3848C228.799 35.2512 173.617 65.0295 120.888 48.1449C72.7578 32.4883 48.5392 -17.2446 39.0357 -63.2935C26.7732 -124.078 33.8243 -191.924 74.5972 -246.568C88.086 -264.681 104.64 -280.338 123.341 -293.538C142.654 -307.046 163.807 -317.791 185.573 -327.615C202.434 -335.289 219.295 -342.35 235.85 -350.025C261.601 -361.998 286.739 -375.198 308.505 -392.697C318.928 -401.293 328.738 -410.81 337.016 -421.554C362.154 -454.096 374.723 -499.224 360.314 -538.519" stroke="#A6A6A6" stroke-width="0.75" stroke-miterlimit="10"/>
<path d="M1074.61 490.829C1020.35 540.562 935.428 551 867.064 523.371C798.7 495.741 746.891 434.035 722.366 364.348C705.198 315.536 701.213 263.04 699.987 211.158C699.067 161.426 700.293 109.851 680.98 64.1088C665.958 28.4975 639.287 -0.0528161 606.485 -20.3144C573.989 -40.2689 535.975 -51.9347 498.268 -54.3906C428.371 -58.6885 359.701 -36.585 296.549 -7.1137C291.337 -4.65775 286.126 -2.20173 281.221 0.254215C233.397 23.5857 179.748 51.5221 128.246 35.5584C81.0347 20.8228 57.1226 -26.4543 46.0863 -70.0473C31.3713 -128.683 34.1304 -195.914 72.7574 -251.173C85.6331 -269.286 101.881 -285.556 120.275 -298.757C139.282 -312.572 160.128 -323.624 181.588 -333.754C198.142 -341.429 215.003 -348.797 231.251 -356.779C256.696 -369.059 281.527 -382.566 302.374 -400.679C312.49 -409.582 321.994 -419.405 329.964 -430.15C354.183 -463.305 365.219 -507.819 350.198 -546.808" stroke="#ABABAB" stroke-width="0.75" stroke-miterlimit="10"/>
<path d="M1080.13 478.549C1023.72 529.203 936.654 540.255 865.838 512.011C795.022 483.768 741.373 420.834 715.928 348.691C699.374 301.107 695.082 250.146 693.549 199.799C692.016 151.295 692.936 101.255 673.929 56.7407C659.214 22.0505 633.769 -5.88587 601.887 -25.8404C570.617 -45.488 533.83 -57.1537 497.042 -59.9167C429.291 -65.1356 362.154 -44.874 300.228 -17.2446C295.323 -15.0957 290.111 -12.6397 285.206 -10.4908C238.915 11.3057 186.799 37.7071 136.523 22.3575C90.5384 8.54279 66.6266 -36.2782 54.0575 -77.1083C36.8899 -133.902 35.0505 -199.906 71.8381 -255.778C84.1007 -274.198 99.7354 -290.468 117.823 -304.283C136.523 -318.405 157.063 -329.764 178.216 -340.201C194.464 -348.183 211.018 -355.858 227.266 -363.84C252.404 -376.427 276.623 -390.548 297.162 -408.661C307.279 -417.564 316.169 -427.694 323.527 -438.439C346.519 -471.901 356.329 -516.415 341.001 -554.79" stroke="#B1B1B1" stroke-width="0.75" stroke-miterlimit="10"/>
<path d="M1085.64 466.269C1027.09 518.151 937.574 529.51 864.611 500.653C791.649 472.102 735.548 407.327 709.797 333.341C693.549 287.292 689.257 237.56 687.418 188.748C685.578 141.471 685.578 93.2729 667.184 49.9868C652.776 16.2176 628.251 -11.1048 597.594 -30.7524C567.245 -50.3999 531.683 -61.7586 496.122 -65.1356C430.517 -70.9684 364.913 -52.5489 304.52 -27.0684C299.615 -24.9195 294.709 -22.7705 289.804 -20.6216C244.126 -0.360028 193.237 23.8924 144.187 9.77073C99.4284 -3.12298 75.5164 -45.181 61.4145 -83.8622C41.4879 -138.507 35.3567 -203.896 70.3049 -260.076C81.9543 -278.803 97.2824 -295.073 115.063 -309.195C133.15 -323.624 153.69 -335.289 174.23 -345.727C190.171 -354.016 206.726 -361.691 222.667 -369.98C247.192 -382.873 271.411 -397.302 291.337 -416.029C301.147 -425.238 309.731 -435.369 316.782 -446.421C338.855 -480.19 347.132 -524.397 331.191 -562.464" stroke="#B7B7B7" stroke-width="0.75" stroke-miterlimit="10"/>
<path d="M1091.16 453.99C1030.46 506.793 938.8 518.458 863.385 489.601C788.277 460.437 730.03 394.433 703.359 317.992C687.724 273.171 683.125 224.973 680.673 177.696C678.527 131.954 677.914 84.9841 660.133 42.926C646.338 10.3847 622.426 -16.3236 592.996 -35.6642C563.872 -55.0048 529.537 -66.3635 494.896 -70.0475C431.13 -76.4943 367.365 -59.9167 308.505 -36.5852C303.6 -34.7432 299.001 -32.5943 294.096 -30.7523C249.645 -12.0258 199.981 10.3848 152.464 -2.81594C108.932 -14.7887 85.0201 -54.3908 69.6919 -90.616C47.3127 -143.419 36.8897 -207.58 69.9986 -264.681C81.0348 -283.408 95.7498 -300.292 113.224 -314.414C131.005 -328.843 151.238 -340.815 171.471 -351.867C187.412 -360.156 203.354 -368.445 219.295 -376.734C243.513 -389.934 267.119 -404.67 286.432 -423.703C295.936 -432.913 304.213 -443.351 310.957 -454.403C331.804 -488.479 338.855 -532.686 322.3 -570.139" stroke="#BCBCBC" stroke-width="0.75" stroke-miterlimit="10"/>
<path d="M1096.68 441.71C1033.83 495.434 939.72 507.714 862.159 478.243C784.598 448.771 724.206 380.926 696.921 302.642C681.593 259.049 676.995 212.386 674.236 166.644C671.476 122.13 670.557 76.6955 653.083 36.1724C639.594 4.55212 616.602 -21.5423 588.091 -40.5759C559.887 -59.6094 526.778 -71.2752 493.363 -75.2661C431.744 -82.6339 369.511 -67.5912 312.184 -46.4087C307.585 -44.5668 302.68 -42.7248 298.082 -41.1898C254.55 -24.3052 206.419 -3.42968 160.128 -15.7094C117.822 -27.0681 93.6039 -63.9073 77.0495 -97.3696C51.9113 -148.023 37.1962 -211.264 68.4657 -268.979C78.8889 -288.012 93.2973 -304.897 110.158 -319.326C127.632 -334.061 147.559 -346.341 167.486 -357.393C183.121 -365.989 199.062 -374.277 214.39 -383.18C238.302 -396.688 261.601 -412.038 280.301 -431.378C289.498 -440.895 297.469 -451.333 303.907 -462.691C323.527 -497.075 329.351 -540.975 312.184 -578.121" stroke="#C2C2C2" stroke-width="0.75" stroke-miterlimit="10"/>
<path d="M1102.2 429.43C1037.21 484.075 940.946 496.969 860.933 466.883C781.226 436.798 718.687 367.725 690.483 286.985C675.768 244.927 670.863 199.492 667.491 154.978C664.425 111.999 662.586 68.0994 645.725 28.8043C632.543 -1.89503 610.777 -27.0685 583.186 -46.1021C555.902 -64.8286 524.019 -76.4944 491.83 -80.7923C432.357 -88.7741 371.964 -75.5734 315.862 -56.2328C311.264 -54.6979 306.665 -53.1629 302.067 -51.3209C259.455 -35.9713 212.857 -16.9377 167.792 -28.2965C126.713 -38.7342 102.187 -72.8104 84.4068 -104.124C56.5095 -152.936 37.8092 -215.255 66.9328 -273.584C76.4363 -292.924 90.538 -309.809 107.399 -324.545C124.567 -339.587 143.88 -352.174 163.807 -363.533C179.135 -372.436 194.77 -380.724 210.098 -389.934C233.703 -404.056 256.389 -419.406 274.476 -439.36C283.367 -449.184 291.031 -459.622 296.856 -470.98C315.556 -505.978 319.848 -549.571 302.067 -586.103" stroke="#C7C7C7" stroke-width="0.75" stroke-miterlimit="10"/>
<path d="M1107.72 417.151C1040.27 472.716 941.865 486.224 860.012 455.832C777.853 425.439 713.475 354.524 684.352 271.636C669.943 230.806 665.038 186.906 661.359 143.927C657.681 102.176 655.535 59.8106 638.98 21.7434C626.105 -7.72791 605.258 -32.5944 578.894 -51.3209C552.836 -69.7405 522.179 -81.4062 490.91 -86.3181C433.583 -95.2209 374.722 -83.8622 320.154 -66.3636C315.556 -64.8286 311.264 -63.6007 306.665 -62.0657C265.279 -48.251 219.908 -31.0594 176.069 -41.4972C135.909 -51.014 111.384 -82.6343 92.3773 -111.492C61.4144 -158.155 38.7286 -219.553 66.0127 -278.496C74.9031 -298.143 88.6985 -315.335 104.946 -330.378C121.501 -345.727 140.814 -358.621 160.434 -370.287C175.456 -379.19 191.091 -388.092 206.112 -397.302C229.411 -411.731 251.79 -427.387 269.265 -447.649C277.848 -457.473 284.899 -468.218 290.724 -479.883C308.198 -515.188 311.264 -558.781 292.87 -594.699" stroke="#CDCDCD" stroke-width="0.75" stroke-miterlimit="10"/>
<path d="M1113.23 404.871C1043.64 461.665 943.091 475.172 858.786 444.473C774.481 413.774 707.65 341.323 678.22 256.286C664.425 216.991 659.214 174.626 654.922 132.875C650.936 92.6589 647.871 51.5219 631.929 14.9897C619.36 -13.5606 599.434 -37.8131 573.989 -55.9257C548.851 -74.0383 519.421 -85.704 489.377 -90.9229C434.196 -100.44 376.868 -90.9229 323.833 -75.5732C319.541 -74.3453 315.249 -73.1173 310.651 -71.5824C270.184 -59.3026 226.346 -43.953 183.733 -53.7768C144.8 -62.3726 119.661 -91.2299 99.7349 -117.631C65.7063 -162.145 39.3418 -222.93 64.48 -282.18C72.7573 -301.827 85.9395 -319.326 101.881 -334.675C118.129 -350.332 137.136 -363.533 156.449 -375.199C171.471 -384.408 186.799 -393.311 201.514 -402.828C224.506 -417.564 246.272 -433.834 263.44 -454.403C271.717 -464.533 278.462 -475.278 283.98 -486.944C300.228 -522.555 302.067 -565.841 283.06 -601.452" stroke="#D2D2D2" stroke-width="0.75" stroke-miterlimit="10"/>
<path d="M1118.75 392.591C1047.02 450.306 944.011 464.427 857.56 433.114C770.803 401.801 702.133 327.816 671.783 240.63C658.601 202.562 653.082 161.732 648.484 121.516C644.192 82.5281 640.513 43.233 624.879 7.62177C612.616 -20.0076 593.609 -43.3391 569.391 -61.4517C545.479 -79.2573 516.968 -90.923 488.151 -96.7559C435.116 -106.887 379.321 -99.2118 327.512 -86.0111C323.22 -84.7831 318.928 -83.8622 314.636 -82.6342C275.09 -71.8894 232.784 -58.3817 191.704 -67.2845C153.997 -75.2663 128.552 -101.361 107.399 -125.306C69.9983 -167.671 39.9552 -227.535 63.254 -287.706C70.9181 -307.66 83.7938 -325.466 99.4285 -340.815C115.37 -356.472 134.07 -369.98 153.077 -382.259C167.792 -391.776 182.814 -400.986 197.529 -410.503C220.215 -425.545 241.674 -442.123 257.922 -462.999C265.893 -473.129 272.33 -484.181 277.542 -496.154C292.87 -532.072 293.483 -575.358 273.863 -610.048" stroke="#D8D8D8" stroke-width="0.75" stroke-miterlimit="10"/>
<path d="M1124.27 380.311C1050.39 438.947 945.238 453.683 856.334 422.063C767.431 390.442 696.308 314.922 665.345 225.587C652.469 188.748 646.951 149.453 641.74 110.772C636.835 73.0114 632.543 35.2512 617.521 1.17501C605.565 -25.5334 587.784 -48.2509 564.486 -66.0565C541.493 -83.8621 514.516 -95.5278 486.618 -101.361C435.422 -112.412 381.774 -106.273 331.191 -95.2209C326.899 -94.2999 322.913 -93.3789 318.928 -92.4579C280.608 -83.2481 239.528 -71.8894 199.675 -79.5642C163.194 -86.625 137.136 -109.957 115.063 -131.446C74.2902 -171.355 40.5683 -230.605 62.3343 -291.389C69.3853 -311.651 81.9544 -329.457 96.976 -345.113C112.611 -361.077 131.004 -374.892 149.398 -387.478C163.807 -397.302 178.828 -406.512 192.93 -416.336C215.003 -431.685 236.156 -448.57 252.097 -470.059C259.761 -480.497 265.893 -491.856 270.798 -503.522C284.9 -539.747 284.286 -582.726 264.053 -617.109" stroke="#DEDEDE" stroke-width="0.75" stroke-miterlimit="10"/>
<path d="M1129.79 368.032C1053.76 427.588 946.157 442.938 855.108 410.704C764.058 378.469 690.79 301.414 658.907 209.93C646.645 174.626 640.513 136.559 635.302 99.4127C630.09 63.1875 625.185 26.6553 610.47 -6.19297C599.127 -31.6734 581.96 -53.7769 559.887 -71.5825C537.815 -89.0811 512.063 -100.747 485.392 -107.194C436.342 -118.859 384.226 -114.561 335.176 -105.659C331.191 -105.045 327.205 -104.124 323.22 -103.203C285.819 -95.8349 246.273 -86.0112 207.646 -92.765C172.391 -98.9049 145.72 -119.166 122.728 -138.814C78.5824 -176.267 41.4882 -235.21 61.1083 -296.608C67.5461 -316.87 79.5022 -334.983 94.5238 -350.946C109.545 -367.217 127.939 -381.338 146.026 -393.925C160.128 -403.749 174.843 -413.266 188.945 -423.397C210.711 -439.053 231.558 -456.552 246.579 -478.041C253.937 -488.479 259.762 -500.145 264.053 -512.118C277.236 -548.65 275.09 -591.629 254.243 -625.398" stroke="#E3E3E3" stroke-width="0.75" stroke-miterlimit="10"/>
<path d="M1135.31 355.752C1057.13 416.23 947.384 431.886 853.882 399.345C760.38 366.804 685.272 288.214 652.47 194.581C640.514 160.504 634.382 123.972 628.864 88.054C623.346 53.0568 617.828 18.0596 603.419 -13.2537C592.383 -37.8131 576.135 -59.3026 554.982 -76.4942C534.136 -93.6858 509.611 -105.352 483.86 -112.105C436.955 -124.385 386.372 -122.236 338.855 -114.868C334.869 -114.254 330.884 -113.64 327.205 -113.026C290.724 -107.194 252.71 -99.2117 215.31 -105.045C180.975 -110.263 153.997 -127.762 130.085 -145.261C82.5676 -179.951 41.7946 -238.587 59.5753 -300.599C65.4 -321.168 77.0495 -339.587 91.458 -355.858C106.173 -372.436 123.954 -386.864 142.041 -399.758C156.143 -409.889 170.551 -419.712 184.347 -430.15C205.806 -446.421 226.039 -463.919 240.754 -486.023C247.805 -496.768 253.324 -508.433 257.309 -520.406C269.265 -557.552 265.893 -599.917 244.433 -633.38" stroke="#E9E9E9" stroke-width="0.75" stroke-miterlimit="10"/>
<path d="M1140.83 343.472C1060.51 405.178 948.303 421.142 852.655 388.293C757.007 355.138 679.447 275.013 646.338 179.231C634.995 146.383 628.557 111.386 622.426 77.0024C616.295 43.5401 610.163 10.0779 596.368 -20.3144C585.638 -43.9529 570.31 -64.8284 550.383 -81.7131C530.457 -98.5977 507.158 -110.263 482.633 -117.631C437.875 -130.832 388.824 -130.218 342.84 -124.999C339.161 -124.692 335.176 -124.078 331.497 -123.771C296.242 -119.473 259.455 -113.333 223.587 -118.245C190.478 -122.85 162.887 -136.972 138.055 -152.321C86.8592 -184.249 43.0207 -242.884 58.6554 -305.511C63.867 -326.387 74.9032 -344.806 89.0051 -361.384C103.414 -378.268 120.888 -392.697 138.668 -406.205C152.464 -416.643 166.566 -426.466 180.361 -437.211C201.514 -453.789 221.441 -471.594 235.543 -494.005C242.287 -504.75 247.499 -516.722 251.177 -529.002C261.907 -566.455 257.309 -608.82 235.236 -641.668" stroke="#EEEEEE" stroke-width="0.75" stroke-miterlimit="10"/>
<path d="M1146.34 331.193C1063.88 393.819 949.529 410.397 851.429 376.935C753.329 343.472 673.929 261.812 639.9 163.882C628.864 132.568 622.426 98.799 615.988 65.9507C609.55 33.7164 602.806 1.78914 589.317 -27.0682C578.894 -49.7857 564.792 -69.7402 545.785 -86.6249C527.085 -103.202 504.705 -114.868 481.407 -122.543C438.794 -136.358 391.584 -137.586 346.825 -134.516C343.147 -134.209 339.468 -133.902 335.789 -133.595C301.454 -130.832 266.199 -126.534 231.557 -130.525C199.675 -134.209 171.471 -145.261 145.72 -158.768C91.1512 -187.626 43.6339 -246.261 57.4292 -309.502C62.0277 -330.377 72.7574 -349.104 86.5528 -365.989C100.655 -382.873 117.822 -397.916 135.296 -411.424C148.785 -421.861 162.887 -432.299 176.376 -443.044C197.222 -459.928 216.536 -478.348 230.025 -501.066C236.462 -512.117 241.368 -524.09 244.74 -536.37C254.55 -574.13 248.418 -616.495 225.733 -648.729" stroke="#F4F4F4" stroke-width="0.75" stroke-miterlimit="10"/>
<path d="M1151.86 318.913C1067.25 382.46 950.45 399.652 850.203 365.576C749.957 331.499 668.411 248.304 633.463 148.225C623.039 118.139 616.295 86.212 609.244 54.5917C602.193 23.8924 594.836 -6.80688 581.96 -34.4363C571.843 -55.9258 558.661 -75.5733 540.574 -92.151C522.793 -108.422 501.947 -120.087 479.568 -128.376C439.101 -143.112 393.423 -145.875 349.891 -144.954C346.212 -144.954 342.84 -144.647 339.161 -144.647C306.053 -143.419 272.024 -140.963 238.609 -144.033C207.952 -146.796 179.135 -154.471 152.464 -166.443C94.5235 -191.924 43.6338 -250.866 55.2833 -314.721C59.2686 -335.903 69.3852 -354.937 82.874 -371.822C96.6694 -389.013 113.53 -404.363 130.698 -418.178C143.88 -428.922 157.676 -439.36 170.858 -450.412C191.398 -467.603 210.405 -486.33 223.28 -509.355C229.718 -520.713 234.01 -532.686 237.076 -545.273C245.66 -583.34 238.302 -625.398 215.003 -657.325" stroke="#F9F9F9" stroke-width="0.75" stroke-miterlimit="10"/>
<path d="M1157.38 306.633C1070.62 371.102 951.369 388.6 848.977 354.217C746.585 319.834 662.586 235.104 627.025 132.875C599.741 53.9779 596.369 -39.041 535.976 -97.0627C489.071 -142.191 418.868 -152.936 353.877 -154.47C288.579 -156.005 221.441 -151.094 160.128 -172.89C98.8156 -194.994 44.2473 -254.55 54.3639 -319.019C61.1083 -361.998 93.9106 -396.074 127.326 -424.01C160.741 -451.947 197.529 -478.348 217.762 -517.029C241.981 -563.385 237.076 -623.249 205.5 -665" stroke="white" stroke-width="0.75" stroke-miterlimit="10"/>
</svg>
