<svg width="697" height="441" viewBox="0 0 697 441" fill="none" xmlns="http://www.w3.org/2000/svg">
<path d="M1182.51 33.2C1208.57 79.8629 1177.3 140.955 1131.62 168.891C1085.95 196.52 1030.76 201.125 978.035 210.642C925.612 220.466 869.818 239.499 841.307 284.627C804.52 342.342 824.14 423.695 784.9 479.568C754.55 523.161 697.222 537.283 646.946 535.134C618.435 533.906 590.232 523.468 562.028 519.784C433.578 502.899 376.863 384.4 281.215 402.513C177.597 422.16 144.795 490.313 140.196 529.915C134.065 580.876 139.583 704.287 264.661 740.205C315.55 754.941 366.747 771.518 411.198 800.069C478.029 842.434 515.123 934.225 481.708 1005.75C458.716 1054.87 406.906 1090.79 399.549 1144.51C394.644 1180.74 412.425 1217.27 439.402 1241.83C466.38 1266.39 501.635 1279.9 537.196 1288.19" stroke="white" stroke-width="0.75" stroke-miterlimit="10"/>
<path d="M1179.14 31.665C1203.97 80.477 1173.93 143.718 1127.33 173.189C1081.65 201.739 1025.55 206.651 972.823 215.554C920.708 224.15 865.526 241.034 835.789 283.399C798.082 337.737 813.41 416.327 774.17 471.586C742.901 515.793 687.719 532.371 637.443 532.985C608.319 533.292 579.196 524.696 549.459 521.319C424.687 506.891 367.973 392.382 274.165 410.188C173.305 429.221 139.89 494.611 134.372 534.213C127.321 584.253 132.839 703.059 252.399 740.205C301.755 755.555 351.725 773.361 395.87 801.911C460.862 843.355 497.343 931.462 466.687 1001.46C445.227 1049.96 396.177 1086.19 388.819 1139.6C383.608 1176.14 399.856 1212.67 425.301 1238.15C450.745 1263.94 484.774 1279.59 519.722 1289.72" stroke="#FBFBFB" stroke-width="0.75" stroke-miterlimit="10"/>
<path d="M1176.07 30.1299C1199.68 81.0907 1170.56 146.48 1123.04 177.487C1077.67 206.958 1020.65 212.484 967.305 220.159C915.189 227.526 860.927 242.262 830.271 282.171C791.337 333.132 802.68 408.959 763.133 463.911C731.251 508.425 677.909 528.073 627.632 531.45C598.202 533.292 567.546 526.538 536.889 523.468C415.49 510.881 359.083 401.285 267.42 418.476C169.626 436.896 135.291 499.522 128.853 538.817C120.576 588.243 126.401 702.138 240.443 740.819C288.267 756.783 337.01 776.123 380.542 804.367C443.694 844.89 479.562 929.62 451.665 998.079C432.045 1045.97 385.447 1082.81 378.09 1135.31C372.571 1171.84 387.593 1208.68 411.198 1235.08C435.11 1262.09 467.606 1279.9 502.248 1291.87" stroke="#F6F6F6" stroke-width="0.75" stroke-miterlimit="10"/>
<path d="M1173.01 28.595C1195.39 81.7048 1167.49 149.243 1118.75 181.785C1073.38 212.177 1015.74 218.01 962.093 224.764C910.284 231.21 856.329 243.49 825.059 280.636C784.899 328.22 792.257 400.978 752.71 455.622C719.908 500.75 668.712 522.854 618.436 528.994C588.392 532.678 556.51 527.459 524.934 524.696C407.213 513.951 350.806 409.266 261.289 425.844C166.254 443.65 131.306 503.513 123.949 542.808C114.752 591.313 120.576 700.91 229.1 740.512C275.391 757.397 322.908 777.965 366.134 805.902C427.447 845.811 462.701 926.857 437.563 993.474C419.782 1040.44 375.944 1078.2 368.28 1130.09C362.761 1166.93 375.944 1203.76 397.71 1231.09C420.089 1259.33 451.358 1279.28 485.387 1293.41" stroke="#F2F2F2" stroke-width="0.75" stroke-miterlimit="10"/>
<path d="M1169.64 27.0601C1190.48 82.3188 1163.81 151.699 1114.15 186.082C1068.78 217.396 1010.53 223.843 956.269 229.369C904.459 234.587 851.424 244.718 819.235 279.408C778.155 323.615 781.221 393.61 741.367 447.641C707.952 493.076 658.595 518.249 608.319 527.152C577.969 532.678 544.86 528.994 511.751 526.538C397.403 517.635 341.302 417.862 253.625 433.826C161.349 450.711 125.788 508.425 117.51 547.106C107.087 594.69 113.525 699.989 216.224 740.512C260.982 758.318 307.273 779.807 349.886 807.744C409.359 846.732 444.001 924.401 421.621 989.177C405.68 1035.53 364.601 1073.6 356.63 1125.17C350.805 1162.32 362.761 1199.16 382.688 1227.4C403.841 1256.87 433.271 1278.98 466.993 1294.94" stroke="#EEEEEE" stroke-width="0.75" stroke-miterlimit="10"/>
<path d="M1166.57 25.5251C1186.19 82.9329 1160.75 154.462 1109.86 190.38C1064.49 222.615 1005.62 229.676 951.057 233.973C899.554 238.271 847.132 245.946 813.716 277.874C771.41 318.704 770.491 385.935 730.637 439.352C696.302 485.401 649.091 513.337 598.815 524.696C567.852 531.757 533.517 529.915 499.489 527.766C388.819 520.398 332.718 425.844 247.187 441.194C157.976 457.464 121.495 512.416 112.299 551.097C100.956 597.76 107.394 698.761 204.574 740.512C247.8 758.932 293.171 781.649 334.864 809.586C392.498 847.653 426.526 921.945 406.906 984.879C392.498 1030.62 354.177 1069.3 345.9 1119.96C340.075 1157.41 350.192 1194.25 368.586 1223.41C388.206 1254.42 416.41 1278.36 449.518 1296.17" stroke="#E9E9E9" stroke-width="0.75" stroke-miterlimit="10"/>
<path d="M1163.2 23.9902C1181.59 83.5469 1157.07 156.918 1105.26 194.678C1060.19 227.834 1000.41 235.508 945.232 238.578C894.036 241.648 842.227 247.174 807.892 276.339C764.36 313.792 759.454 378.26 719.295 431.063C684.04 477.419 638.975 508.425 589.005 522.547C557.429 531.45 522.174 531.143 486.613 529.301C379.316 523.468 323.521 434.133 240.136 448.869C153.685 464.525 116.897 516.714 106.474 555.088C93.9049 601.137 100.649 697.84 192.005 740.205C234.004 759.546 277.843 783.491 319.229 811.12C374.717 848.574 408.439 919.182 391.578 980.274C379.009 1025.71 343.141 1064.7 334.864 1114.74C328.733 1152.19 337.316 1189.34 354.177 1219.42C372.265 1251.66 399.242 1278.06 431.738 1297.4" stroke="#E5E5E5" stroke-width="0.75" stroke-miterlimit="10"/>
<path d="M1160.13 22.4551C1177.3 84.1607 1153.7 159.681 1100.97 199.283C1055.9 233.359 995.509 241.341 939.714 243.797C888.824 245.946 837.322 249.016 802.374 275.724C757.615 309.494 748.725 371.506 708.565 424.002C672.697 470.972 629.472 504.741 579.502 521.319C547.313 532.064 510.832 533.292 474.35 531.757C370.732 527.152 315.244 443.036 233.391 457.464C150.006 472.507 112.299 521.933 100.956 560.307C87.4672 605.435 94.2116 698.147 180.049 741.126C220.516 761.388 263.128 786.254 303.901 814.19C357.55 850.723 390.965 917.954 376.863 977.204C366.134 1022.02 333.025 1061.32 324.441 1111.05C318.003 1148.81 325.054 1185.96 340.076 1216.66C356.63 1250.43 382.075 1278.67 414.264 1299.85" stroke="#E1E1E1" stroke-width="0.75" stroke-miterlimit="10"/>
<path d="M1157.07 20.9204C1173.01 84.775 1150.63 162.137 1096.98 203.581C1051.92 238.272 990.91 247.174 934.809 248.402C883.92 249.323 833.337 250.244 797.162 274.19C751.178 304.582 738.302 363.832 697.836 415.714C661.048 462.99 619.662 499.83 569.999 519.17C537.503 531.757 499.795 531.143 462.088 533.292C362.148 538.511 306.66 451.325 226.954 465.139C146.328 479.568 108.007 526.538 95.7446 564.605C81.3361 608.812 88.0806 697.533 168.4 741.126C207.64 762.309 248.72 788.403 289.186 816.032C340.995 851.644 373.798 915.498 362.455 972.906C353.565 1017.11 322.908 1057.02 314.324 1105.83C307.58 1143.9 313.098 1181.35 326.587 1212.67C341.302 1247.66 365.827 1278.06 397.403 1301.08" stroke="#DCDCDC" stroke-width="0.75" stroke-miterlimit="10"/>
<path d="M1153.7 19.3853C1168.1 85.6958 1146.95 164.593 1092.38 207.879C1047.32 243.49 985.699 254.542 928.984 253.007C878.401 251.472 828.431 251.472 791.337 272.962C744.433 299.977 727.266 356.157 686.799 407.732C649.092 455.622 609.852 495.225 560.188 517.328C527.08 531.757 488.146 532.371 449.212 535.134C352.951 541.581 297.463 459.92 219.903 473.121C142.036 486.629 103.102 531.143 89.6132 568.903C74.285 612.189 81.0294 697.226 155.831 741.433C193.538 763.844 233.391 790.552 273.245 818.181C323.215 852.872 355.71 913.656 346.82 968.915C339.769 1012.51 311.565 1053.03 302.981 1101.23C296.237 1139.6 300.222 1177.06 311.872 1209.29C325.054 1245.82 348.046 1278.06 379.316 1302.92" stroke="#D8D8D8" stroke-width="0.75" stroke-miterlimit="10"/>
<path d="M1150.63 17.8503C1163.81 86.3098 1143.58 167.356 1088.09 212.177C1043.03 248.709 980.793 258.84 923.773 257.612C873.496 256.691 824.14 252.7 786.126 271.427C737.995 295.065 716.842 348.482 676.069 399.443C637.749 447.641 600.348 490.62 550.685 514.872C517.269 531.143 477.109 532.985 436.95 536.362C344.674 543.73 288.879 467.902 213.465 480.489C138.663 493.383 99.1163 535.134 84.4013 572.894C68.1534 615.566 74.8978 696.919 144.181 741.126C180.662 764.458 219.289 792.087 258.529 819.716C306.66 853.486 338.849 910.893 332.411 964.31C327.2 1007.6 301.755 1048.12 292.865 1096.01C285.814 1134.69 287.96 1172.14 298.383 1205.3C310.032 1243.06 331.798 1277.44 362.455 1304.46" stroke="#D4D4D4" stroke-width="0.75" stroke-miterlimit="10"/>
<path d="M1147.26 16.3154C1159.21 86.9239 1139.9 169.812 1083.49 216.475C1038.43 253.621 975.582 264.673 917.948 262.217C867.978 260.068 819.235 253.928 780.301 270.199C730.944 290.767 705.806 341.114 665.033 391.768C625.793 440.58 590.538 486.629 540.875 513.337C506.846 531.757 465.46 534.52 424.074 538.511C335.477 546.8 279.683 476.805 206.107 488.778C134.065 501.058 93.9052 540.046 78.2704 577.499C61.1029 619.25 67.8472 697.226 131.306 741.433C166.254 765.993 203.655 794.543 242.282 821.866C288.573 854.714 320.456 909.052 316.47 960.319C313.405 1002.99 290.106 1044.13 281.216 1091.1C273.858 1129.78 274.471 1167.85 283.055 1201.62C292.865 1240.91 313.711 1277.14 343.754 1305.99" stroke="#CFCFCF" stroke-width="0.75" stroke-miterlimit="10"/>
<path d="M1144.19 14.7803C1154.92 87.5376 1136.83 172.268 1079.2 220.773C1034.14 258.84 970.677 270.506 912.43 266.822C862.46 263.752 814.329 255.156 774.476 268.664C724.2 285.855 694.463 333.439 653.69 383.479C613.53 432.598 580.421 481.717 530.758 510.881C496.423 531.143 453.504 535.44 411.198 539.738C326.28 548.641 270.486 484.48 199.056 496.452C129.773 507.811 89.0001 544.65 72.4456 581.796C54.3584 622.627 60.7962 697.226 119.043 741.74C152.459 767.22 188.633 796.692 226.954 824.014C271.712 855.941 302.981 906.902 301.449 956.328C300.222 998.693 279.376 1040.14 270.486 1086.49C262.822 1125.48 261.902 1163.55 268.953 1198.24C277.23 1239.07 296.544 1277.14 326.28 1307.84" stroke="#CBCBCB" stroke-width="0.75" stroke-miterlimit="10"/>
<path d="M1140.82 13.2454C1150.02 88.1517 1133.16 175.031 1074.6 225.071C1029.54 263.752 965.465 276.338 906.912 271.734C857.249 267.743 809.731 256.691 768.958 267.743C717.455 281.557 683.734 326.071 642.961 375.804C602.188 425.537 571.225 477.726 521.561 509.346C486.613 531.45 442.775 536.976 399.243 541.887C318.003 551.097 262.209 493.383 192.925 504.741C126.707 515.486 85.3213 549.562 67.5406 586.401C48.5337 626.618 54.9715 697.84 107.7 742.047C139.89 769.062 174.531 798.841 212.239 826.163C255.158 857.169 286.12 905.06 287.04 952.337C287.96 994.395 269.26 1035.84 260.369 1081.89C252.705 1121.18 249.946 1159.56 255.464 1194.86C261.902 1237.23 280.296 1277.14 309.419 1309.68" stroke="#C7C7C7" stroke-width="0.75" stroke-miterlimit="10"/>
<path d="M1137.75 11.7104C1145.72 88.7657 1129.78 177.487 1070.62 229.369C1025.55 268.971 960.56 282.171 901.7 276.339C852.343 271.427 805.439 257.919 763.746 266.208C711.017 276.645 673.31 318.397 632.231 367.515C590.538 417.555 561.721 473.121 512.058 506.89C476.803 531.143 431.431 537.897 386.673 543.116C309.113 552.325 253.318 501.364 185.874 512.109C122.415 522.24 80.4161 553.553 61.7158 590.392C41.7891 629.688 47.9204 697.84 95.4378 741.74C126.094 769.983 159.816 800.683 196.91 827.698C237.99 857.783 268.953 902.604 272.325 948.039C275.391 989.483 259.143 1031.54 249.946 1076.67C241.975 1116.27 237.683 1154.65 241.669 1190.87C246.574 1234.46 263.435 1276.52 292.252 1310.91" stroke="#C2C2C2" stroke-width="0.75" stroke-miterlimit="10"/>
<path d="M1134.69 10.1755C1141.43 89.3797 1126.41 179.943 1066.33 233.973C1021.26 274.497 955.656 288.618 896.489 281.25C847.132 275.111 801.148 259.454 758.535 265.287C704.887 272.348 662.887 311.336 621.808 359.841C579.195 410.187 552.524 469.13 502.861 505.355C466.993 531.45 421.009 543.422 374.718 545.264C300.223 548.641 245.041 509.96 179.743 520.398C119.35 529.915 76.7376 558.772 56.811 594.997C35.9646 633.371 41.4828 698.761 84.0951 742.354C113.219 772.132 145.715 803.139 182.196 830.461C221.436 859.625 252.399 901.069 257.917 944.662C263.128 985.8 249.026 1027.86 239.523 1072.68C231.246 1112.28 225.114 1150.96 227.567 1188.11C230.633 1233.24 246.574 1277.14 274.778 1313.36" stroke="#BEBEBE" stroke-width="0.75" stroke-miterlimit="10"/>
<path d="M1131.32 8.64062C1136.83 89.9938 1122.73 182.399 1061.73 238.271C1016.66 279.408 950.444 294.451 890.664 285.855C841.614 278.794 796.243 260.989 752.404 263.752C697.529 267.436 651.544 303.354 610.158 351.859C566.626 402.82 542.101 464.525 492.438 503.206C456.263 531.45 408.746 544.037 361.229 546.799C290.106 550.79 235.231 518.249 172.079 528.073C114.445 536.976 71.2193 563.07 50.373 599.295C28.607 637.055 33.512 699.375 71.2194 742.354C98.5035 773.667 130.08 804.981 166.254 832.303C203.655 860.546 234.618 898.921 242.282 940.365C249.639 980.888 237.683 1023.56 228.18 1067.77C219.596 1107.68 211.932 1146.66 212.852 1184.12C214.078 1230.47 229.1 1276.52 256.69 1314.59" stroke="#BABABA" stroke-width="0.75" stroke-miterlimit="10"/>
<path d="M1128.25 7.10571C1132.24 90.6078 1119.36 184.855 1057.43 242.569C1012.37 284.627 945.539 300.284 885.146 290.46C836.402 282.478 791.644 262.217 746.886 262.217C690.784 262.524 640.815 295.679 599.428 343.57C555.283 394.838 532.904 459.92 482.934 501.058C446.453 531.143 397.71 544.958 348.966 548.334C281.522 552.939 226.954 526.538 165.334 535.748C110.459 544.037 66.9274 567.368 44.8548 603.286C22.1691 640.125 26.461 699.989 58.9568 742.047C84.4015 774.895 115.364 806.516 150.619 833.838C186.181 861.16 217.45 896.158 226.954 935.76C236.764 975.669 226.647 1018.95 217.144 1062.24C208.253 1102.46 198.75 1141.45 198.443 1179.82C197.83 1227.71 211.626 1275.6 238.91 1315.82" stroke="#B5B5B5" stroke-width="0.75" stroke-miterlimit="10"/>
<path d="M1124.88 5.57056C1127.64 91.2216 1115.68 187.311 1052.84 246.867C1007.77 289.539 940.327 306.117 879.628 295.372C830.884 286.469 786.739 263.752 741.367 261.296C684.347 258.226 629.778 288.618 588.392 335.895C543.327 387.47 523.094 455.929 473.124 499.215C436.337 531.143 386.06 546.185 336.397 550.176C272.632 555.395 218.063 535.134 158.59 543.729C106.781 551.404 62.6354 572.28 39.3366 607.891C15.7312 644.116 19.1034 700.91 47.0007 742.661C70.2995 777.044 100.649 809.278 135.598 836.294C169.32 862.695 200.589 894.316 212.239 932.076C224.501 971.678 216.531 1014.96 206.72 1057.94C197.524 1098.47 186.487 1137.45 184.341 1176.75C181.889 1226.18 194.764 1275.91 221.435 1317.97" stroke="#B1B1B1" stroke-width="0.75" stroke-miterlimit="10"/>
<path d="M1121.81 4.03564C1123.35 92.1427 1112.31 189.767 1048.54 251.165C1003.17 294.758 935.422 312.257 874.11 299.977C825.673 290.153 782.141 264.98 735.849 259.761C677.602 253.314 619.049 280.636 577.663 327.606C531.678 379.488 513.897 451.325 463.928 497.067C426.527 531.143 375.331 546.8 324.135 551.711C263.742 557.544 209.48 543.423 152.152 551.404C103.102 558.158 58.3439 576.578 34.1254 611.882C9.90687 647.186 11.7462 701.524 35.3516 742.354C56.5045 778.579 86.5477 810.814 120.576 837.829C152.459 863.309 184.035 891.553 197.524 927.471C212.239 966.152 206.108 1010.36 196.298 1052.72C186.794 1093.25 173.918 1132.54 170.546 1172.76C166.254 1223.41 177.904 1275.29 204.268 1319.19" stroke="#ADADAD" stroke-width="0.75" stroke-miterlimit="10"/>
<path d="M1118.44 2.50073C1118.75 92.7567 1108.63 192.222 1044.25 255.463C998.881 299.67 930.517 318.09 868.898 304.582C820.767 293.837 777.848 266.208 730.331 258.533C670.858 248.709 608.319 273.269 566.626 319.625C519.722 372.12 504.087 447.027 454.117 494.918C416.41 530.836 363.681 547.413 311.565 553.246C254.851 559.693 200.589 551.711 145.408 559.079C99.423 565.219 54.0514 581.183 28.6067 616.18C3.46844 650.87 3.77506 702.138 23.3951 742.354C41.789 780.421 71.8322 812.656 105.554 839.671C135.597 863.923 167.48 889.097 182.808 923.173C200.282 961.24 195.684 1006.06 185.874 1047.51C176.064 1088.34 161.655 1127.94 156.75 1168.77C150.619 1220.96 161.349 1274.68 187.1 1320.42" stroke="#A8A8A8" stroke-width="0.75" stroke-miterlimit="10"/>
<path d="M1115.38 0.96582C1114.15 93.3708 1105.26 194.985 1039.96 259.761C994.589 304.889 925.612 324.23 863.38 309.187C815.249 297.521 773.25 267.436 724.813 256.998C664.114 243.797 597.589 265.594 555.896 311.643C508.073 364.446 494.89 442.729 444.614 493.076C406.6 531.143 352.338 548.335 298.996 555.089C245.654 562.149 191.699 560.307 138.357 567.061C95.1312 572.587 49.4533 586.095 22.7823 620.478C-3.27566 654.554 -4.50187 702.752 11.1329 742.661C26.7676 782.57 57.1174 814.805 89.9197 841.82C118.43 865.152 150.313 886.641 167.787 919.182C187.714 956.329 184.954 1001.76 175.144 1042.9C165.334 1084.04 148.78 1123.64 142.649 1165.39C134.678 1218.81 144.181 1274.68 169.626 1322.26" stroke="#A4A4A4" stroke-width="0.75" stroke-miterlimit="10"/>
</svg>
