<svg width="34" height="34" viewBox="0 0 34 34" fill="none" xmlns="http://www.w3.org/2000/svg">
<circle cx="10" cy="10" r="10" fill="#FFF6E2"/>
<path d="M19.3815 32.2223C26.7719 32.2223 32.763 26.3522 32.763 19.1111C32.763 11.8701 26.7719 6 19.3815 6C11.9911 6 6 11.8701 6 19.1111C6 26.3522 11.9911 32.2223 19.3815 32.2223Z" stroke="#222222" stroke-width="2" stroke-linecap="round" stroke-linejoin="round"/>
<path d="M23.5445 14.7402C23.2752 14.2824 22.8839 13.905 22.4124 13.6484C21.941 13.3918 21.4072 13.2656 20.8682 13.2834H17.8946C17.1059 13.2834 16.3495 13.5904 15.7919 14.1368C15.2342 14.6832 14.9209 15.4242 14.9209 16.197C14.9209 16.9697 15.2342 17.7108 15.7919 18.2572C16.3495 18.8036 17.1059 19.1106 17.8946 19.1106H20.8682C21.6569 19.1106 22.4133 19.4175 22.9709 19.9639C23.5286 20.5103 23.8419 21.2514 23.8419 22.0241C23.8419 22.7969 23.5286 23.538 22.9709 24.0844C22.4133 24.6308 21.6569 24.9377 20.8682 24.9377H17.8946C17.3556 24.9555 16.8218 24.8293 16.3504 24.5727C15.8789 24.3161 15.4876 23.9387 15.2183 23.4809" stroke="#222222" stroke-width="2" stroke-linecap="round" stroke-linejoin="round"/>
<path d="M19.3813 24.938V27.8516M19.3813 10.3701V13.2837V10.3701Z" stroke="#222222" stroke-width="2" stroke-linecap="round" stroke-linejoin="round"/>
</svg>
