<svg width="30" height="31" viewBox="0 0 30 31" fill="none" xmlns="http://www.w3.org/2000/svg">
<circle cx="19.0383" cy="10" r="10" fill="#FFF6E2"/>
<path d="M9.48706 17.4999L12.3221 20.2777L17.9922 14.7222" stroke="#222222" stroke-width="2" stroke-linecap="round" stroke-linejoin="round"/>
<path d="M13.7395 5C17.0506 7.87024 21.3722 9.36468 25.7885 9.16667C26.4315 11.3097 26.6283 13.5576 26.3671 15.7766C26.1059 17.9957 25.3921 20.1407 24.2681 22.0841C23.1441 24.0275 21.6329 25.7297 19.8242 27.0896C18.0155 28.4494 15.9463 29.4392 13.7395 30C11.5327 29.4392 9.46353 28.4494 7.65485 27.0896C5.84618 25.7297 4.33495 24.0275 3.21097 22.0841C2.08699 20.1407 1.3732 17.9957 1.11201 15.7766C0.850813 13.5576 1.04755 11.3097 1.69053 9.16667C6.10689 9.36468 10.4284 7.87024 13.7395 5" stroke="#222222" stroke-width="2" stroke-linecap="round" stroke-linejoin="round"/>
</svg>
