<svg width="28" height="36" viewBox="0 0 28 36" fill="none" xmlns="http://www.w3.org/2000/svg">
<circle cx="15" cy="10" r="10" fill="#FFF6E2"/>
<path d="M12.7208 9.77734L25.9067 22.6968C26.2671 23.0916 26.4663 23.6027 26.4663 24.1323C26.4663 24.662 26.2671 25.1731 25.9067 25.5678L17.1161 34.1808C16.7132 34.5339 16.1916 34.7291 15.651 34.7291C15.1104 34.7291 14.5888 34.5339 14.1859 34.1808L1 21.2613V15.5193C1 13.9965 1.61743 12.536 2.71647 11.4591C3.81551 10.3823 5.30613 9.77734 6.86041 9.77734H12.7208Z" stroke="#222222" stroke-width="2" stroke-linecap="round" stroke-linejoin="round"/>
<path d="M9.79055 21.2615C11.4089 21.2615 12.7208 19.9761 12.7208 18.3905C12.7208 16.8049 11.4089 15.5195 9.79055 15.5195C8.17225 15.5195 6.86035 16.8049 6.86035 18.3905C6.86035 19.9761 8.17225 21.2615 9.79055 21.2615Z" stroke="#222222" stroke-width="2" stroke-linecap="round" stroke-linejoin="round"/>
</svg>
